<svg width="24" height="24" viewBox="0 0 24 24" fill="none" xmlns="http://www.w3.org/2000/svg">
<path d="M8 13.25C9.41262 13.2501 10.5175 13.6781 11.3594 14.3516C12.1895 15.0157 12.7228 15.885 13.0674 16.7119C13.4121 17.5393 13.5813 18.3561 13.665 18.959C13.7072 19.2623 13.7285 19.5166 13.7393 19.6973C13.7446 19.7877 13.7466 19.8608 13.748 19.9121C13.7488 19.9376 13.7498 19.9579 13.75 19.9727V19.999C13.75 19.9994 13.75 20 13 20H13.75C13.75 20.4142 13.4142 20.75 13 20.75H3C2.58583 20.75 2.25006 20.4142 2.25 20H3L2.25 19.999V19.9727C2.2502 19.9579 2.25125 19.9376 2.25195 19.9121C2.25337 19.8608 2.25537 19.7877 2.26074 19.6973C2.27148 19.5166 2.29289 19.2622 2.33496 18.959C2.41865 18.356 2.58798 17.5393 2.93262 16.7119C3.27709 15.885 3.81048 15.0157 4.64062 14.3516C5.48248 13.6782 6.58736 13.25 8 13.25ZM19 1.25C19.9665 1.25 20.75 2.0335 20.75 3V19.25H21C21.4142 19.25 21.75 19.5858 21.75 20C21.75 20.4142 21.4142 20.75 21 20.75H16C15.5858 20.75 15.25 20.4142 15.25 20C15.25 19.5858 15.5858 19.25 16 19.25H19.25V3C19.25 2.86193 19.1381 2.75 19 2.75H10C9.86193 2.75 9.75 2.86193 9.75 3C9.75 3.41421 9.41421 3.75 9 3.75C8.58579 3.75 8.25 3.41421 8.25 3C8.25 2.0335 9.0335 1.25 10 1.25H19ZM8 14.75C6.91261 14.75 6.14146 15.072 5.57715 15.5234C5.00135 15.9842 4.5977 16.6153 4.31738 17.2881C4.0373 17.9604 3.89372 18.644 3.82129 19.166C3.81734 19.1945 3.81505 19.2226 3.81152 19.25H12.1885C12.1849 19.2226 12.1827 19.1945 12.1787 19.166C12.1062 18.644 11.9628 17.9605 11.6826 17.2881C11.4022 16.6152 10.9979 15.9842 10.4219 15.5234C9.85754 15.072 9.08717 14.7501 8 14.75ZM8 5.25C10.0711 5.25 11.75 6.92893 11.75 9C11.75 11.0711 10.0711 12.75 8 12.75C5.92893 12.75 4.25 11.0711 4.25 9C4.25 6.92893 5.92893 5.25 8 5.25ZM17 8.75C17.4142 8.75 17.75 9.08579 17.75 9.5V12C17.75 12.4142 17.4142 12.75 17 12.75C16.5858 12.75 16.25 12.4142 16.25 12V11.75H15C14.5858 11.75 14.25 11.4142 14.25 11C14.25 10.5858 14.5858 10.25 15 10.25H16.25V9.5C16.25 9.08579 16.5858 8.75 17 8.75ZM8 6.75C6.75736 6.75 5.75 7.75736 5.75 9C5.75 10.2426 6.75736 11.25 8 11.25C9.24264 11.25 10.25 10.2426 10.25 9C10.25 7.75736 9.24264 6.75 8 6.75ZM17 5.25C17.4142 5.25 17.75 5.58579 17.75 6C17.75 6.41421 17.4142 6.75 17 6.75H13C12.5858 6.75 12.25 6.41421 12.25 6C12.25 5.58579 12.5858 5.25 13 5.25H17Z" fill="#0194F3"></path>
</svg>